# xmcd
#
# Track frame offsets: 
#        187
#        22255
#        37470
#        54117
#        70750
#        90342
#        107032
#        123050
#        144560
#        161602
#
# Disc length: 2383 seconds
#
# Revision: 0
# Processed by: cddbd v1.5.2PL0 Copyright (c) Steve Scherf et al.
# Submitted via: ExactAudioCopy v0.95b4
#
DISCID=82094d0a
DTITLE=Dee Harvey - Just As I Am
DYEAR=1991
DGENRE=R&B
TTITLE0=Leave Well Enough Alone
TTITLE1=All That You Want
TTITLE2=Star
TTITLE3=How Can We Be Friends
TTITLE4=Just As I Am
TTITLE5=What's Next?
TTITLE6=I Don't Know Yet
TTITLE7=Like An Echo
TTITLE8=Nothing But Emotion
TTITLE9=The Tie That Binds
EXTD=
EXTT0=
EXTT1=
EXTT2=
EXTT3=
EXTT4=
EXTT5=
EXTT6=
EXTT7=
EXTT8=
EXTT9=
PLAYORDER=
